# xmcd
#
# Track frame offsets:
#	150
#	4031
#	17264
#	32771
#	43305
#	57464
#	75184
#	91876
#	97266
#	117176
#	135826
#	161176
#
# Disc length: 2434 seconds
#
# Revision: 0
# Processed by: cddbd v1.4PL0 Copyright (c) Steve Scherf et al.
# Submitted via: dBpowerAMP V4.0
#
DISCID=8a09800c
DTITLE=Sisqo - Return Of Da Dragon
DYEAR=2001
DGENRE=
TTITLE0=Intro
TTITLE1=Not Afraid
TTITLE2=Infatuated
TTITLE3=Can I Live ft. Da Dragon Family
TTITLE4=Without U
TTITLE5=Homewrecker
TTITLE6=Last Night
TTITLE7=Close Ur Eyes (Interlude)
TTITLE8=Close Ur Eyes
TTITLE9=Dance For Me
TTITLE10=Off The Corner Ft. The Associates
TTITLE11=Dream Ft Chinky Of Lovher
EXTD=
EXTT0=
EXTT1=
EXTT2=
EXTT3=
EXTT4=
EXTT5=
EXTT6=
EXTT7=
EXTT8=
EXTT9=
EXTT10=
EXTT11=
PLAYORDER=
